<svg xmlns="http://www.w3.org/2000/svg" width="500" height="200" viewBox="0 0 500 200">
  <defs><linearGradient id="bg" x1="0" y1="0" x2="1" y2="1"><stop stop-color="#0a263b"/><stop offset="1" stop-color="#247875"/></linearGradient><radialGradient id="orb"><stop stop-color="#e2f3c7"/><stop offset="1" stop-color="#52a68b"/></radialGradient></defs>
  <rect width="500" height="200" fill="url(#bg)"/><g stroke="#9ddbb6" stroke-width="2" opacity=".62"><path d="M0 42h125l30 30h190l30-30h125M0 158h110l36-36h208l36 36h110"/><path d="M74 0v44m350 0V0m-72 200v-45m-230 45v-45"/></g>
  <g transform="translate(177 38)"><rect x="-12" y="-12" width="160" height="144" rx="10" fill="#112c37" stroke="#b5e1bc" stroke-width="3"/><rect x="9" y="9" width="118" height="102" rx="6" fill="url(#orb)"/><circle cx="68" cy="58" r="32" fill="none" stroke="#eff8d5" stroke-width="5"/><path d="M68 27c-18 18-18 44 0 62 18-18 18-44 0-62Zm-29 31h58" fill="none" stroke="#eff8d5" stroke-width="4"/><circle cx="68" cy="58" r="6" fill="#317a67"/></g>
  <text x="18" y="27" fill="#e3f5d8" font-family="Arial" font-size="13" font-weight="bold">INTEL 2024</text><text x="250" y="188" text-anchor="middle" fill="#cff1dd" font-family="Arial" font-size="12">SUSTAINABILITY SUMMIT</text>
</svg>